HIERARCHY
ROOT Hips
{
	OFFSET 0.000000 0.000000 0.000000
	CHANNELS 6 Xposition Yposition Zposition Xrotation Yrotation Zrotation
	JOINT LeftUpLeg_virtual
	{
		OFFSET 0.000000 0.000000 0.000000
		CHANNELS 3 Xrotation Yrotation Zrotation
		JOINT LeftUpLeg
		{
			OFFSET 10.205400 -3.823500 0.155100
			CHANNELS 3 Xrotation Yrotation Zrotation
			JOINT LeftLeg
			{
				OFFSET 0.708757 -12.982077 0.567790
				CHANNELS 3 Xrotation Yrotation Zrotation
				JOINT LeftFoot
				{
					OFFSET -0.708756 -10.717838 -2.184338
					CHANNELS 3 Xrotation Yrotation Zrotation
					JOINT LeftToeBase
					{
						OFFSET 0.108149 -7.191104 7.560241
						CHANNELS 3 Xrotation Yrotation Zrotation
						JOINT LeftToe_End
						{
							OFFSET 0.070230 0.081724 4.490308
							CHANNELS 3 Xrotation Yrotation Zrotation
							End Site
							{
								OFFSET 0 0 0
							}
						}
					}
				}
			}
		}
	}
	JOINT RightUpLeg_virtual
	{
		OFFSET 0.000000 0.000000 0.000000
		CHANNELS 3 Xrotation Yrotation Zrotation
		JOINT RightUpLeg
		{
			OFFSET -10.205400 -3.823500 0.005500
			CHANNELS 3 Xrotation Yrotation Zrotation
			JOINT RightLeg
			{
				OFFSET -0.708756 -12.982134 0.610632
				CHANNELS 3 Xrotation Yrotation Zrotation
				JOINT RightFoot
				{
					OFFSET 0.708754 -10.717769 -1.945823
					CHANNELS 3 Xrotation Yrotation Zrotation
					JOINT RightToeBase
					{
						OFFSET -0.108140 -7.191069 7.372968
						CHANNELS 3 Xrotation Yrotation Zrotation
						JOINT RightToe_End
						{
							OFFSET -0.070227 0.081735 4.479403
							CHANNELS 3 Xrotation Yrotation Zrotation
							End Site
							{
								OFFSET 0 0 0
							}
						}
					}
				}
			}
		}
	}
	JOINT Spine_virtual
	{
		OFFSET 0.000000 0.000000 0.000000
		CHANNELS 3 Xrotation Yrotation Zrotation
		JOINT Spine
		{
			OFFSET 0.000000 6.876099 0.125700
			CHANNELS 3 Xrotation Yrotation Zrotation
			JOINT Spine1
			{
				OFFSET 0.000000 5.730043 0.104720
				CHANNELS 3 Xrotation Yrotation Zrotation
				JOINT Spine1_split
				{
					OFFSET 0.000000 5.730043 0.104720
					CHANNELS 3 Xrotation Yrotation Zrotation
					JOINT Spine2
					{
						OFFSET 0.000000 5.730043 0.104720
						CHANNELS 3 Xrotation Yrotation Zrotation
						JOINT Neck_virtual
						{
							OFFSET 0.000000 0.000000 0.000000
							CHANNELS 3 Xrotation Yrotation Zrotation
							JOINT Neck
							{
								OFFSET 0.000000 10.314075 0.188496
								CHANNELS 3 Xrotation Yrotation Zrotation
								JOINT Head
								{
									OFFSET 0.000000 7.643700 -2.377400
									CHANNELS 3 Xrotation Yrotation Zrotation
									JOINT HeadTop_End
									{
										OFFSET 0.000000 43.788605 -13.619600
										CHANNELS 3 Xrotation Yrotation Zrotation
										End Site
										{
											OFFSET 0 0 0
										}
									}
								}
							}
						}
						JOINT LeftShoulder_virtual
						{
							OFFSET 0.000000 0.000000 0.000000
							CHANNELS 3 Xrotation Yrotation Zrotation
							JOINT LeftShoulder
							{
								OFFSET 2.196100 4.412489 0.087492
								CHANNELS 3 Xrotation Yrotation Zrotation
								JOINT LeftShoulder_split
								{
									OFFSET 2.196100 4.412489 0.087492
									CHANNELS 3 Xrotation Yrotation Zrotation
									JOINT LeftArm
									{
										OFFSET 8.771219 -2.981674 -0.026999
										CHANNELS 3 Xrotation Yrotation Zrotation
										JOINT LeftForeArm
										{
											OFFSET 8.512804 0.000000 -0.000000
											CHANNELS 3 Xrotation Yrotation Zrotation
											JOINT LeftHand
											{
												OFFSET 18.484802 0.000000 -0.000000
												CHANNELS 3 Xrotation Yrotation Zrotation
												End Site
												{
													OFFSET 0 0 0
												}
											}
										}
									}
								}
							}
						}
						JOINT RightShoulder_virtual
						{
							OFFSET 0.000000 0.000000 0.000000
							CHANNELS 3 Xrotation Yrotation Zrotation
							JOINT RightShoulder
							{
								OFFSET -2.196100 4.412496 0.070690
								CHANNELS 3 Xrotation Yrotation Zrotation
								JOINT RightShoulder_split
								{
									OFFSET -2.196100 4.412496 0.070690
									CHANNELS 3 Xrotation Yrotation Zrotation
									JOINT RightArm
									{
										OFFSET -8.771282 -2.981682 -0.094208
										CHANNELS 3 Xrotation Yrotation Zrotation
										JOINT RightForeArm
										{
											OFFSET -8.494598 0.000000 0.000000
											CHANNELS 3 Xrotation Yrotation Zrotation
											JOINT RightHand
											{
												OFFSET -18.483803 0.000000 0.000001
												CHANNELS 3 Xrotation Yrotation Zrotation
												End Site
												{
													OFFSET 0 0 0
												}
											}
										}
									}
								}
							}
						}
					}
				}
			}
		}
	}
}
MOTION
Frames: 11
Frame Time: 0.03333333
27.479111 33.651333 64.420029 0.000000 0.000000 0.000000 -7.337974 34.975954 10.565603 -10.168950 6.768297 -22.551372 31.057157 -12.741509 -0.678986 23.772571 4.546647 24.292941 -46.595677 0.320874 5.011863 0.000000 0.000000 0.000000 -5.389389 36.057002 9.815670 3.029895 20.575965 -5.792769 41.263973 -2.540667 -0.032905 23.222303 -5.696992 -5.108392 -40.705066 2.879551 5.197532 0.000000 0.000000 0.000000 -6.336979 37.499323 9.986796 4.278120 -1.224143 -6.896966 -1.997091 -1.345440 0.949517 0.827612 0.505637 0.107030 0.000000 0.000000 0.000000 -1.878005 -1.298606 1.308793 -9.010024 3.409238 2.286384 6.270053 6.512437 -2.647285 0.000000 0.000000 0.000000 -2.183315 -0.911498 1.207532 0.853903 8.914257 -3.513335 0.171079 2.922676 -1.256856 6.552275 -8.948200 -68.738682 11.612280 -24.226059 4.388599 0.000000 0.000000 0.000000 -1.789320 -1.185874 1.237314 0.518774 1.846988 3.241583 1.884492 1.601735 -2.644127 -0.372015 7.566433 77.917828 11.606806 15.045628 -3.141703 0.000000 0.000000 0.000000 
28.453440 33.982086 65.465057 0.000000 0.000000 0.000000 -5.884254 36.679980 8.711866 -6.808043 4.878957 -20.838677 28.489083 -13.659825 -0.109467 19.593955 5.551274 26.538237 -43.718781 1.306512 3.202584 0.000000 0.000000 0.000000 -4.467536 37.560713 8.184630 -2.890653 22.717274 -4.637682 36.738775 -0.006762 -0.404184 28.222413 -3.026426 -4.545844 -42.941854 0.822760 7.206507 0.000000 0.000000 0.000000 -5.107056 38.166626 8.133413 4.427036 -1.878149 -6.260905 -2.211357 -1.772555 1.073996 0.823344 0.335636 0.216988 0.000000 0.000000 0.000000 -1.906491 -1.666924 1.523401 -8.765937 3.513003 2.642782 6.442779 6.734289 -3.052048 0.000000 0.000000 0.000000 -2.158406 -1.339903 1.405167 0.668757 7.713932 -3.322627 0.313921 3.419816 -1.150725 5.215213 -10.954313 -68.607208 11.726462 -24.763616 4.578500 0.000000 0.000000 0.000000 -1.946121 -1.596588 1.419390 0.261594 0.767621 3.980118 2.275027 1.913775 -2.773819 -0.251454 6.239586 77.347255 11.426552 14.765138 -3.245838 0.000000 0.000000 0.000000 
29.442305 34.295807 66.570236 0.000000 0.000000 0.000000 -4.393323 38.492675 6.744097 -3.229816 4.177761 -18.716178 25.493387 -15.803651 -0.107593 15.591278 4.914537 28.562354 -41.982499 1.699753 2.327388 0.000000 0.000000 0.000000 -3.296927 39.408047 6.282874 -7.165271 21.894875 -4.160632 29.864261 2.690140 -0.436071 32.806382 0.379629 -3.333429 -45.451070 -0.672991 7.305499 0.000000 0.000000 0.000000 -3.813891 38.820968 6.189606 4.599905 -2.448727 -5.676388 -2.386268 -2.128601 1.204628 0.896617 0.407358 0.184572 0.000000 0.000000 0.000000 -1.977311 -2.005903 1.670007 -8.597289 3.402194 3.339597 6.354388 6.930961 -3.418289 0.000000 0.000000 0.000000 -2.197262 -1.724585 1.562911 0.510968 6.442644 -3.057826 0.524515 3.781895 -1.031581 3.770611 -12.883736 -68.534296 11.842778 -25.117174 4.802967 0.000000 0.000000 0.000000 -2.040754 -1.974876 1.561171 0.011216 -0.309459 4.865687 2.614497 2.237466 -2.856576 0.132542 4.985661 76.664502 11.316467 14.704928 -3.403408 0.000000 0.000000 0.000000 
30.440371 34.538414 67.667336 0.000000 0.000000 0.000000 -3.099045 40.419758 5.134008 -0.022578 4.966524 -16.585110 22.882833 -19.077212 -0.675341 13.635849 2.796079 30.121267 -42.142506 1.320366 2.865211 0.000000 0.000000 0.000000 -2.164082 41.805313 4.633251 -10.185747 18.262666 -4.600606 21.851488 4.192312 0.183714 35.116373 2.774317 -2.764711 -45.567149 -1.070399 5.865853 0.000000 0.000000 0.000000 -2.896700 39.828281 4.768669 4.875368 -2.969085 -5.418354 -2.457355 -2.424581 1.388286 0.843793 0.713852 0.084407 0.000000 0.000000 0.000000 -2.091583 -2.298296 1.802323 -8.625721 3.069637 4.309194 6.014743 7.118538 -3.659171 0.000000 0.000000 0.000000 -2.290595 -2.045662 1.731742 0.383203 5.225729 -2.589562 0.786440 3.971298 -0.937125 2.318280 -14.550432 -68.565851 11.896230 -25.517411 5.028431 0.000000 0.000000 0.000000 -2.077113 -2.299167 1.709998 -0.209994 -1.320770 5.816065 2.955500 2.552608 -2.861779 0.835050 4.059290 75.843807 11.319739 14.880274 -3.613870 0.000000 0.000000 0.000000 
31.416265 34.641293 68.701828 0.000000 0.000000 0.000000 -2.255370 42.641851 4.204071 2.347764 6.726784 -14.736838 21.693239 -23.309880 -1.433230 14.521426 0.278559 30.746298 -42.178508 0.757337 3.776526 0.000000 0.000000 0.000000 -1.121041 44.954902 3.531691 -12.575270 12.786682 -5.687848 14.680805 4.626096 1.109117 35.107924 3.676868 -3.040287 -42.777458 -0.251065 3.383558 0.000000 0.000000 0.000000 -2.740355 41.776073 4.241235 5.262286 -3.480903 -5.715635 -2.396528 -2.677318 1.662517 0.824138 1.112755 -0.093970 0.000000 0.000000 0.000000 -2.194783 -2.524812 1.976368 -8.951820 2.515327 5.456372 5.529979 7.265580 -3.731852 0.000000 0.000000 0.000000 -2.365766 -2.285749 1.972708 0.293898 4.150577 -1.846410 1.099547 3.986587 -0.937812 0.869562 -15.823009 -68.679376 11.865913 -26.144292 5.253682 0.000000 0.000000 0.000000 -2.071341 -2.560242 1.918400 -0.404107 -2.210931 6.811754 3.347486 2.891898 -2.785859 1.677606 3.491208 74.924416 11.422853 15.145654 -3.836908 0.000000 0.000000 0.000000 
32.432594 34.621944 69.842422 0.000000 0.000000 0.000000 -1.722385 44.927007 4.024044 4.427511 9.084831 -13.680881 21.210903 -27.027562 -2.134775 15.715861 -1.597289 31.967724 -40.004076 0.683199 3.859068 0.000000 0.000000 0.000000 -0.246459 48.483002 3.090873 -15.087102 6.737951 -6.837557 9.845207 4.313699 1.859138 34.315598 3.372960 -3.122340 -38.966376 1.244577 0.453048 0.000000 0.000000 0.000000 -3.349039 44.579637 4.709382 5.636144 -3.972951 -6.608692 -2.188310 -2.890732 2.029036 0.845615 1.529813 -0.311637 0.000000 0.000000 0.000000 -2.191469 -2.670758 2.234480 -9.550683 1.774951 6.660922 5.071143 7.318348 -3.604579 0.000000 0.000000 0.000000 -2.408439 -2.440449 2.313201 0.237683 3.242581 -0.855129 1.297967 3.792960 -1.039890 -0.589029 -16.554150 -68.875593 11.718498 -26.964154 5.452557 0.000000 0.000000 0.000000 -2.017965 -2.736063 2.212538 -0.559239 -2.939179 7.790685 3.630544 3.062425 -2.562323 2.398589 3.146850 74.013480 11.561216 15.220057 -4.033990 0.000000 0.000000 0.000000 
33.464142 34.513973 70.980904 0.000000 0.000000 0.000000 -1.607104 47.373878 4.526566 6.661230 11.017623 -12.995217 20.984098 -29.789904 -2.475083 16.195145 -2.487300 32.572329 -36.689714 1.117190 3.110302 0.000000 0.000000 0.000000 0.244777 52.016153 3.353215 -17.690128 1.796377 -7.351575 7.664911 4.075035 2.287719 33.959195 2.443725 -2.573439 -35.418612 2.764114 -2.147225 0.000000 0.000000 0.000000 -4.732975 47.806007 6.020603 5.809888 -4.415222 -7.882700 -1.860652 -3.031061 2.461991 0.854826 1.785501 -0.482210 0.000000 0.000000 0.000000 -2.029098 -2.730707 2.571508 -10.181052 0.990364 7.726300 4.841060 7.178646 -3.300193 0.000000 0.000000 0.000000 -2.386758 -2.501482 2.708345 0.202659 2.622959 0.208376 1.320042 3.436915 -1.276394 -1.865921 -16.755566 -69.136035 11.533989 -27.937379 5.617916 0.000000 0.000000 0.000000 -1.914052 -2.813180 2.569958 -0.675577 -3.434294 8.705156 3.659563 3.010965 -2.274872 2.804868 2.872619 73.208843 11.657564 14.814127 -4.168713 0.000000 0.000000 0.000000 
34.465706 34.351032 72.210442 0.000000 0.000000 0.000000 -1.943875 49.856720 5.387486 9.628347 11.654168 -12.463427 20.347603 -31.444804 -2.492694 14.835229 -2.472507 32.342503 -34.892581 1.639905 1.907499 0.000000 0.000000 0.000000 0.416682 55.257760 3.871269 -19.843680 -1.202869 -6.691945 8.291102 4.383572 2.249600 34.494238 1.605940 -1.470772 -33.625233 3.968618 -3.800871 0.000000 0.000000 0.000000 -6.398669 50.960584 7.612025 5.598568 -4.694977 -9.169787 -1.494215 -3.086076 2.881892 0.927014 1.954195 -0.546048 0.000000 0.000000 0.000000 -1.700278 -2.709992 2.933264 -10.668656 0.275439 8.481817 4.963908 6.837339 -2.893257 0.000000 0.000000 0.000000 -2.311181 -2.467267 3.100254 0.170265 2.319113 1.117910 1.221358 2.784469 -1.571808 -2.723882 -16.562615 -69.436693 11.408505 -28.777779 5.738784 0.000000 0.000000 0.000000 -1.754035 -2.800159 2.928886 -0.743948 -3.652115 9.527354 3.411592 2.809284 -1.993378 2.883092 2.557689 72.690247 11.688901 13.888173 -4.245431 0.000000 0.000000 0.000000 
35.481834 34.183399 73.552139 0.000000 0.000000 0.000000 -2.750103 52.026282 6.283672 13.288746 10.884861 -11.597197 19.514878 -31.820233 -2.282438 11.982750 -1.829980 31.943869 -37.265181 1.620340 1.355784 0.000000 0.000000 0.000000 0.231915 57.616621 4.308730 -21.371737 -2.104304 -4.823760 11.125321 4.848992 1.770741 36.129870 1.101716 0.077998 -34.633690 4.518583 -4.063690 0.000000 0.000000 0.000000 -7.798473 53.412889 8.861221 4.969246 -4.746228 -9.987253 -1.151087 -3.028348 3.224880 0.992227 1.999264 -0.562729 0.000000 0.000000 0.000000 -1.273548 -2.637878 3.271427 -10.856132 -0.209727 8.759771 5.416997 6.360704 -2.481689 0.000000 0.000000 0.000000 -2.207393 -2.365097 3.401203 0.123006 2.373124 1.634849 1.105695 1.935286 -1.735490 -2.905443 -16.123437 -69.781960 11.372116 -29.104474 5.743080 0.000000 0.000000 0.000000 -1.524187 -2.720295 3.209525 -0.770731 -3.558585 10.111956 2.922200 2.521743 -1.759452 2.811656 2.267010 72.552913 11.661072 12.645244 -4.314419 0.000000 0.000000 0.000000 
36.414398 34.040527 74.924797 0.000000 0.000000 0.000000 -4.138904 53.908395 6.902973 16.476202 8.986248 -9.332813 19.552907 -31.863017 -1.844226 11.118930 -1.037594 29.868158 -45.553199 0.507786 2.493166 0.000000 0.000000 0.000000 -0.574720 59.288883 4.569016 -22.256856 -1.345637 -2.246138 15.324079 5.391748 1.047024 38.318645 1.182853 1.323230 -37.745234 4.394445 -3.168596 0.000000 0.000000 0.000000 -8.660542 55.062274 9.220445 4.045141 -4.586928 -9.971218 -0.897488 -2.885348 3.446068 1.028564 1.947698 -0.436244 0.000000 0.000000 0.000000 -0.861603 -2.556023 3.529421 -10.719359 -0.397746 8.490990 6.080100 5.873200 -2.156776 0.000000 0.000000 0.000000 -2.073570 -2.221243 3.565352 0.056534 2.797385 1.603065 1.000490 1.003133 -1.745548 -2.246993 -15.650096 -70.162517 11.470220 -28.564223 5.574014 0.000000 0.000000 0.000000 -1.253804 -2.618814 3.362074 -0.766568 -3.183969 10.363822 2.399562 2.274454 -1.572643 2.785715 2.066909 72.794387 11.599258 11.488460 -4.419284 0.000000 0.000000 0.000000 
37.322266 33.893513 76.329140 0.000000 0.000000 0.000000 -6.063354 55.467235 7.062696 18.426532 6.555064 -6.012720 20.875389 -31.239851 -1.494322 13.433186 -0.006688 27.165983 -56.878718 -1.754689 4.323620 0.000000 0.000000 0.000000 -1.864667 60.216922 4.300663 -22.568079 0.040197 0.405131 19.826598 5.615674 0.370523 40.107048 1.869704 1.796615 -41.624703 3.770667 -1.720803 0.000000 0.000000 0.000000 -9.194399 55.998563 8.661790 3.183833 -4.289632 -8.948490 -0.776879 -2.709263 3.536103 1.034505 1.805946 -0.359948 0.000000 0.000000 0.000000 -0.552550 -2.487043 3.693321 -10.436837 -0.334859 7.723989 6.783822 5.495273 -1.977126 0.000000 0.000000 0.000000 -1.936474 -2.075937 3.612106 -0.011249 3.459776 1.061272 0.856484 0.213955 -1.638827 -0.897514 -15.084181 -70.510570 11.624054 -26.983455 5.182439 0.000000 0.000000 0.000000 -0.974866 -2.537972 3.381755 -0.720693 -2.561581 10.168289 1.964395 2.003725 -1.427871 2.897009 1.959157 73.362714 11.504718 10.777542 -4.592842 0.000000 0.000000 0.000000 
